<?xml version="1.0" encoding="UTF-8" standalone="no"?><svg xmlns="http://www.w3.org/2000/svg" xmlns:xlink="http://www.w3.org/1999/xlink" fill="#392e18" height="810.1" preserveAspectRatio="xMidYMid meet" version="1" viewBox="0.1 -0.1 316.8 810.1" width="316.8" zoomAndPan="magnify"><g id="change1_1"><path d="m377.07 248.81c13.639 5.3804 24.482-18.704 44.24-0.91933 3.6867 3.3184 10.152 9.8377 13.809 17.176 3.5036 7.0296 15.61 24.987 26.902 39.905 25.568 33.776 38.152 54.511 38.152 62.866 0 9.4654-12.101 26.968-35.441 51.262-11.356 11.819-24.668 27.813-29.583 35.54-8.1324 12.786-10.213 14.436-23.121 18.337-7.8012 2.3573-15.17 5.1209-16.375 6.141-1.2309 1.0418 0.6056 9.3998 4.1906 19.071 3.5098 9.4693 11.546 37.555 17.857 62.412 9.6117 37.855 15.869 59.318 22.516 72.815 5.5451 11.26 16.946 15.96 19.621 22.039 2.0516 4.662 3.2119 8.2622-3.2142 15.075-3.7295 3.9541-5.7654 4.8784-5.7654 8.2599 0 12.84 13.825 45.971 24.013 57.545 16.537 18.787 29.043 55.492 44.997 132.07 5.6353 27.048 9.8636 40.557 17.365 55.48 5.9788 11.894 11.326 27.223 13.467 38.608 1.9526 10.385 6.6196 25.14 10.371 32.789 7.6596 15.617 6.3738 18.495-8.2961 18.566-7.112 0.034-8.174-1.0088-11.885-11.675h-2.5e-4c-6.4995-18.679-9.6468-23.836-16.579-27.169-7.4841-3.5983-11.049-14.968-7.0415-22.456 1.4464-2.7028 2.6051-13.586 2.5748-24.186-1.702-14.757-14.972-45.952-28.127-69.689-18.552-33.477-35.231-64.902-39.726-85.2-2.1026-9.4932-6.5843-22.254-9.9597-28.356s-9.6759-18.663-14.001-27.912c-6.4246-13.738-12.607-18.668-17.108-22.216-6.8455-5.3959-26.142 1.6351-35.527-8.8424-4.2837-4.7824 0.0633-8.1818-0.8347-12.136-5.5381-24.386-3.9697-46.398-17.996-86.632-13.023-37.356-25.453-66.185-25.453-66.185-5.1245-12.906-5.299 34.805-10.29 80.118-2.1914 19.896-9.9261 42.658-4.3988 56.59 8.4629 21.331 2.2548 38.414-4.7693 34.783-29.127-18.517-19.397 58.534-18.883 65.994 2.3306 31.176 0.45814 52.532-7.4787 85.305-6.8506 28.287-7.4193 54.471-1.4247 65.601 2.7405 5.0888 4.25 13.419 4.25 23.457 0 13.698-0.65589 15.857-5.4673 17.999-6.4152 2.8558-8.7434 9.9373-9.0814 27.621-0.28824 15.078-3.6456 17.964-20.897 17.964-13.024 0-16.131-3.0679-8.5116-8.4046 4.593-3.2171 5.6861-6.9877 7.019-24.21 0.86819-11.22 3.6592-29.999 6.2022-41.731 4.4939-20.733 4.4998-22.74 0.20712-71.507 0 0-7.5276-33.676-4.4167-50.175 5.516-29.255 11.7-52.517 8.9411-77.672-0.93774-16.952-2.8751-28.12-5.9461-38.488-0.35702-19.314-25.427-12.287-27.403-27.842 0.46626-10.723 3.4932-14.809 13.115-23.189 14.759-12.853 12.106-79.735 14.36-112.67 1.0909-23.733 3.1619-47.027 4.6021-51.765 3.8074-12.524 3.3761-14.293-4.4732-18.351-4.4773-2.3154-8.6272-7.5652-11.257-14.242-2.2912-5.8158-8.5313-17.981-13.867-27.033-6.1341-10.406-9.6818-19.474-9.6476-24.658 2.7723-21.486 18.074-38.447 26.237-54.621 13.347-26.584 28.191-49.134 35.895-54.53 3.0174-2.1134 9.7871-3.8427 15.044-3.8427 15.7 0 26.331-14.867 26.331-36.824 0-9.7467-5.3389-15.399-16.215-17.167-11.886-1.9319-14.475-6.6882-18.148-33.346-2.9012-21.055-1.7078-33.836 4.0093-42.94 3.8981-6.2068 16.088-15.062 29.275-15.15 43.735-0.20434 78.08 50.431 40.356 92.543-5.8007 3.345-3.1286 23.77 12.688 30.01zm44.942 197.89c3.4873-2.7432 8.6117-11.057 11.387-18.476s12.35-24.599 21.276-38.18c10.369-15.776 15.732-26.244 14.852-28.991-0.75773-2.3642-10.593-14.212-21.855-26.328-22.633-24.349-27.11-25.716-29.769-9.0898-2.5826 16.151-15.938 50.456-26.39 67.786-13.452 22.303-13.157 30.12 1.7364 46.043 12.657 13.531 18.797 15.075 28.763 7.2356zm-144.99-26.278c20.348-7.0883 27.026-33.011 13.607-52.815-6.0261-8.8933-7.3606-13.408-7.3973-25.029-0.0593-18.643-3.4526-18.433-19.921 1.2329-18.548 22.149-20.415 27.635-15.907 46.755 2.0106 8.5281 3.672 19.057 3.692 23.397 0.0394 8.5057 6.017 14.024 12.365 11.415 2.0343-0.83589 8.137-3.0662 13.562-4.956z" fill="inherit" transform="translate(-202.09 -115.11) scale(.91246)"/></g></svg>