<?xml version="1.0" encoding="UTF-8"?><svg xmlns="http://www.w3.org/2000/svg" xmlns:xlink="http://www.w3.org/1999/xlink" height="62.0" preserveAspectRatio="xMidYMid meet" version="1.0" viewBox="1.0 1.0 62.0 62.0" width="62.0" zoomAndPan="magnify"><g id="change1_1"><path d="M62,47h-1v-5c0-4.264-2.444-7.961-6-9.786V2c0-0.553-0.447-1-1-1H14c-0.553,0-1,0.447-1,1v3h-3C9.447,5,9,5.447,9,6v6.613 C6.831,13.511,4.497,14,2.121,14H2c-0.553,0-1,0.447-1,1v16.761c0,3.608,1.771,6.989,4.738,9.044L9,43.063V62c0,0.553,0.447,1,1,1 h28h1h23c0.553,0,1-0.447,1-1V48C63,47.447,62.553,47,62,47z M59,42v5h-2v-5c0-3.859-3.141-7-7-7s-7,3.141-7,7v5h-2v-5 c0-4.963,4.037-9,9-9S59,37.037,59,42z M55,47H45v-5c0-2.757,2.243-5,5-5s5,2.243,5,5V47z M41,8.414L47.586,15H41V8.414z M15,3h38 v28.426c-0.645-0.183-1.312-0.313-2-0.376V16c0-0.277-0.113-0.527-0.294-0.708l-9.997-9.997C40.527,5.113,40.277,5,40,5H15V3z M3,31.761V15.98c4.358-0.192,8.562-1.814,11.925-4.615L15,11.302l0.075,0.063c3.362,2.801,7.566,4.423,11.925,4.615v15.78 c0,2.952-1.449,5.718-3.877,7.399L15,44.784L6.877,39.16C4.449,37.479,3,34.713,3,31.761z M11,44.447l3.431,2.375 C14.602,46.94,14.801,47,15,47s0.398-0.06,0.569-0.178l8.692-6.018C27.229,38.75,29,35.369,29,31.761V29h12v-2H29v-2h12v-2H29v-2 h12v-2H29v-4c0-0.553-0.447-1-1-1h-0.121c-4.202,0-8.295-1.481-11.522-4.172l-0.716-0.597c-0.371-0.309-0.91-0.309-1.281,0 l-0.716,0.597c-0.828,0.69-1.714,1.298-2.644,1.824V7h28v9c0,0.553,0.447,1,1,1h9v14.051C43.402,31.558,39,36.272,39,42v5h-1 c-0.553,0-1,0.447-1,1v13H11V44.447z M50,57c-1.103,0-2-0.897-2-2s0.897-2,2-2s2,0.897,2,2S51.103,57,50,57z M51,61v-2.142 c1.721-0.447,3-1.999,3-3.858c0-2.206-1.794-4-4-4s-4,1.794-4,4c0,1.859,1.279,3.411,3,3.858V61H39v-2h4v-2h-4v-4h4v-2h-4v-2h1h4 h17v2h-5v2h5v4h-5v2h5v2H51z" fill="inherit"/><path d="M25,28c0-5.514-4.486-10-10-10S5,22.486,5,28s4.486,10,10,10S25,33.514,25,28z M7,28c0-4.411,3.589-8,8-8s8,3.589,8,8 s-3.589,8-8,8S7,32.411,7,28z" fill="inherit"/><path d="M15.201,33.979c0.329-0.067,0.603-0.296,0.728-0.608l4-10l-1.857-0.742l-3.437,8.592l-2.928-2.928l-1.414,1.414l4,4 C14.482,33.896,14.737,34,15,34C15.066,34,15.134,33.993,15.201,33.979z" fill="inherit"/><path d="M13 57H35V59H13z" fill="inherit"/><path d="M13 53H35V55H13z" fill="inherit"/><path d="M13 49H35V51H13z" fill="inherit"/></g></svg>