<?xml version="1.0" encoding="UTF-8" standalone="no"?><svg xmlns="http://www.w3.org/2000/svg" xmlns:xlink="http://www.w3.org/1999/xlink" fill="#000000" height="134.1" preserveAspectRatio="xMidYMid meet" version="1" viewBox="0.0 -0.0 483.9 134.1" width="483.9" zoomAndPan="magnify"><g><g id="change1_1"><path d="m480.85,56.31v21.44c0,29.44-23.87,53.31-53.31,53.31H56.31c-29.44,0-53.31-23.87-53.31-53.31v-21.44h477.85Z" fill="#000000"/></g><g id="change2_1"><path d="m427.54,134.06H56.31C25.26,134.06,0,108.8,0,77.75v-21.44c0-1.66,1.34-3,3-3s3,1.34,3,3v21.44c0,27.74,22.57,50.31,50.31,50.31h371.23c27.74,0,50.31-22.57,50.31-50.31v-21.44c0-1.66,1.34-3,3-3s3,1.34,3,3v21.44c0,31.05-25.26,56.31-56.31,56.31Z"/></g><g id="change3_1"><path d="m56.31,109.62c-29.44,0-53.31-23.87-53.31-53.31S26.87,3,56.31,3h371.23c29.44,0,53.31,23.87,53.31,53.31s-23.87,53.31-53.31,53.31H56.31Z" fill="#ffffff"/></g><g id="change2_2"><path d="m5.63,75.89c-1.26,0-2.44-.8-2.85-2.07-1.84-5.64-2.78-11.53-2.78-17.51C0,25.26,25.26,0,56.31,0h338.98c1.66,0,3,1.34,3,3s-1.34,3-3,3H56.31C28.57,6,6,28.57,6,56.31c0,5.35.83,10.61,2.48,15.64.51,1.58-.34,3.27-1.92,3.78-.31.1-.62.15-.93.15Z"/></g><g id="change2_3"><path d="m68.98,112.62h-12.67c-16.24,0-31.69-7.02-42.4-19.25-1.09-1.25-.96-3.14.28-4.23,1.25-1.09,3.14-.97,4.23.28,9.56,10.93,23.37,17.2,37.88,17.2h12.67c1.66,0,3,1.34,3,3s-1.34,3-3,3Z"/></g><g id="change2_4"><path d="m427.54,112.62H89.74c-1.66,0-3-1.34-3-3s1.34-3,3-3h337.79c27.74,0,50.31-22.57,50.31-50.31,0-6.81-1.34-13.41-3.97-19.62-.65-1.53.07-3.29,1.59-3.93,1.52-.65,3.29.07,3.93,1.59,2.95,6.96,4.45,14.35,4.45,21.96,0,31.05-25.26,56.31-56.31,56.31Z"/></g><g id="change2_5"><path d="m468.75,25.49c-.87,0-1.73-.37-2.32-1.1-9.6-11.69-23.78-18.4-38.9-18.4h-15.41c-1.66,0-3-1.34-3-3s1.34-3,3-3h15.41c16.92,0,32.78,7.5,43.53,20.59,1.05,1.28.87,3.17-.41,4.22-.56.46-1.23.68-1.9.68Z"/></g></g></svg>