<?xml version="1.0" encoding="UTF-8" standalone="no"?><svg xmlns="http://www.w3.org/2000/svg" xmlns:xlink="http://www.w3.org/1999/xlink" fill="#000000" height="501.2" preserveAspectRatio="xMidYMid meet" version="1" viewBox="-0.2 -1.2 249.1 501.2" width="249.1" zoomAndPan="magnify"><defs><clipPath id="a"><path d="M 199 87 L 248.960938 87 L 248.960938 122 L 199 122 Z M 199 87"/></clipPath></defs><g><g id="change1_1"><path d="M 79.042969 77.109375 C 79.042969 77.109375 56.730469 67.222656 46.144531 75.292969 L 50.992188 91.597656 L 84.023438 96.433594 L 89.785156 86.730469 L 79.042969 77.109375" fill="#000000"/></g><g id="change2_1"><path d="M 77.183594 437.367188 L 76.917969 438.648438 L 75.003906 442.8125 C 73.753906 445.519531 74.753906 448.714844 77.304688 450.253906 C 79.738281 451.726562 82.984375 453.15625 86.40625 453.171875 C 93.476562 453.203125 100.113281 449.3125 100.113281 449.3125 L 102.414062 447.792969 L 99.738281 443.460938 L 99.558594 440.671875 L 77.183594 437.367188" fill="#000000"/></g><g id="change1_2"><path d="M 39.117188 455.917969 C 39.117188 455.917969 38.839844 461.660156 37.914062 463.515625 C 36.984375 465.363281 36.707031 467.773438 36.707031 470.273438 C 36.707031 472.773438 37.171875 479.8125 37.171875 479.8125 L 39.671875 483.332031 C 39.671875 483.332031 38.652344 489.722656 42.914062 493.886719 C 47.171875 498.054688 54.582031 500 62.359375 500 C 70.140625 500 72.730469 496.109375 72.917969 494.535156 C 73.101562 492.960938 73.101562 487.589844 70.972656 480.832031 C 68.84375 474.070312 67.175781 467.21875 64.210938 463.234375 C 61.25 459.253906 57.082031 455.917969 57.082031 455.917969 L 39.117188 455.917969" fill="#000000"/></g><g id="change2_2"><path d="M 64.210938 463.234375 C 59.027344 460.085938 55.667969 461.566406 51.222656 462.492188 C 46.777344 463.421875 45.320312 469.070312 45.320312 469.070312 C 44.488281 466.289062 38.722656 460.136719 38.722656 460.136719 L 38.234375 455.917969 L 58.882812 456.359375 L 64.210938 463.234375" fill="#000000"/></g><g clip-path="url(#a)" id="change2_6"><path d="M 199.816406 112.753906 C 199.816406 112.753906 201.113281 109.820312 201.113281 108.121094 C 201.113281 106.425781 201.730469 102.8125 204.203125 100.683594 C 206.671875 98.554688 209.914062 97.195312 213.738281 93.582031 C 217.566406 89.972656 220.429688 85.640625 222.175781 88.234375 C 223.171875 89.710938 219.175781 94.910156 218.402344 96.054688 C 217.632812 97.195312 215.46875 98.738281 216.425781 99.480469 C 217.382812 100.222656 225.5625 97.65625 229.484375 96.085938 C 233.402344 94.511719 242.570312 86.546875 243.960938 87.503906 C 245.351562 88.460938 241.832031 91.917969 240.257812 93.335938 C 238.683594 94.757812 237.847656 95.28125 237.847656 95.28125 C 237.847656 95.28125 242.910156 94.695312 245.164062 93.492188 C 247.417969 92.285156 248.40625 92.316406 248.898438 93.027344 C 249.394531 93.738281 246.832031 96.207031 245.96875 96.609375 C 245.101562 97.011719 247.480469 99.171875 244.394531 100.960938 C 241.304688 102.753906 238.097656 104.234375 238.097656 104.234375 C 238.097656 104.234375 238.25 105.5625 235.65625 106.546875 C 233.0625 107.535156 225.59375 112.566406 223.957031 113.617188 C 222.320312 114.667969 219.328125 119.144531 211.980469 120.5625 C 204.632812 121.980469 203.058594 121.796875 203.058594 121.796875 L 199.816406 112.753906" fill="#000000"/></g><g id="change3_1"><path d="M 34.882812 217.921875 C 34.882812 217.921875 33.652344 262.742188 32.726562 269.597656 C 31.800781 276.449219 31.734375 288.671875 33.804688 299.601562 C 35.875 310.527344 36.664062 340.902344 34.882812 348.683594 C 33.097656 356.460938 27.726562 377.945312 28.28125 386.835938 C 28.835938 395.726562 34.207031 456.660156 34.207031 456.660156 C 34.207031 456.660156 40.875 460.363281 48.285156 461.289062 C 55.691406 462.21875 63.101562 461.289062 63.101562 461.289062 C 63.101562 461.289062 59.210938 452.398438 62.359375 446.660156 C 65.507812 440.917969 61.621094 434.25 60.507812 427.394531 C 59.398438 420.542969 64.769531 390.726562 65.695312 382.203125 C 66.621094 373.6875 71.992188 356.089844 74.027344 344.421875 C 76.066406 332.753906 78.472656 310.527344 81.4375 307.195312 C 81.4375 307.195312 84.585938 335.71875 83.660156 345.347656 C 82.734375 354.980469 79.03125 381.09375 78.101562 398.132812 C 77.175781 415.171875 77.175781 440.175781 77.175781 440.175781 C 77.175781 440.175781 85.511719 444.621094 92.363281 444.808594 C 99.21875 444.992188 104.773438 438.695312 104.773438 438.695312 C 104.773438 438.695312 107.738281 410.171875 111.257812 398.6875 C 114.773438 387.207031 116.441406 355.71875 118.292969 345.902344 C 120.148438 336.089844 125.148438 298.859375 127.738281 287.007812 C 130.332031 275.152344 133.667969 260.953125 133.667969 249.902344 C 133.667969 238.851562 126.8125 212.179688 126.8125 212.179688 C 126.8125 212.179688 108.664062 221.441406 89.773438 221.257812 C 70.878906 221.070312 34.882812 217.921875 34.882812 217.921875" fill="#000000"/></g><g id="change4_1"><path d="M 93.707031 229.277344 C 94.269531 231.878906 97.542969 247.527344 96.636719 256.117188 C 95.824219 263.851562 94.746094 271.585938 94.402344 274.003906 C 95.808594 273.179688 99.179688 270.980469 101.875 267.449219 C 104.191406 264.410156 102.566406 256.648438 101.257812 250.414062 C 100.617188 247.371094 100.066406 244.746094 100.066406 243.109375 C 100.066406 238.769531 98.390625 230.367188 98.027344 228.605469 C 96.59375 228.847656 95.148438 229.070312 93.707031 229.277344 Z M 93.90625 275.105469 L 93.683594 275.03125 C 93.566406 274.949219 93.503906 274.808594 93.527344 274.664062 C 93.539062 274.570312 94.894531 265.304688 95.871094 256.035156 C 96.769531 247.496094 93.460938 231.78125 92.941406 229.386719 C 64.253906 233.371094 34.90625 230.59375 34.480469 230.550781 C 34.265625 230.53125 34.113281 230.34375 34.132812 230.132812 C 34.152344 229.917969 34.328125 229.761719 34.554688 229.785156 C 35.167969 229.84375 96.382812 235.640625 128.214844 218.34375 C 128.402344 218.242188 128.636719 218.3125 128.738281 218.496094 C 128.839844 218.6875 128.769531 218.921875 128.582031 219.023438 C 120.144531 223.605469 109.660156 226.582031 98.789062 228.472656 C 99.171875 230.324219 100.839844 238.65625 100.839844 243.109375 C 100.839844 244.664062 101.382812 247.257812 102.011719 250.257812 C 103.351562 256.644531 105.019531 264.597656 102.488281 267.917969 C 98.894531 272.625 94.277344 274.96875 94.082031 275.066406 L 93.90625 275.105469" fill="#431644"/></g><g id="change5_1"><path d="M 85.511719 83.335938 C 85.511719 83.335938 75.125 76.523438 67.964844 77.636719 C 60.800781 78.746094 53.902344 85.558594 48.59375 86.421875 C 48.59375 86.421875 69.214844 150.523438 65.507812 167.679688 C 61.804688 184.832031 61.804688 216.6875 61.804688 216.6875 C 61.804688 216.6875 74.398438 219.960938 87.179688 220.144531 C 99.957031 220.328125 120.515625 215.515625 120.515625 215.515625 C 120.515625 215.515625 103.105469 134.019531 101.253906 113.464844 C 99.402344 92.902344 85.511719 83.335938 85.511719 83.335938" fill="#000000"/></g><g id="change1_3"><path d="M 46.617188 75.371094 C 46.617188 75.371094 46.121094 74.539062 44.207031 77.269531 C 42.296875 80 37.292969 86.546875 29.761719 88.769531 C 22.230469 90.988281 9.144531 87.65625 6.363281 99.511719 C 3.585938 111.363281 7.351562 131.242188 4.019531 141.984375 C 0.683594 152.726562 11.613281 164.394531 15.316406 165.507812 C 19.019531 166.617188 25.132812 165.320312 27.171875 163.46875 C 29.207031 161.617188 31.429688 159.949219 31.429688 159.949219 C 31.429688 159.949219 28.652344 186.4375 27.355469 188.84375 C 26.058594 191.253906 18.835938 200.574219 19.328125 201.253906 C 19.824219 201.933594 21.675781 202.054688 21.859375 202.488281 C 22.046875 202.921875 7.476562 251.382812 6.734375 252.125 C 5.992188 252.863281 17.230469 255.210938 22.046875 256.691406 C 26.859375 258.175781 46.742188 262.25 51.679688 258.667969 C 56.617188 255.089844 59.335938 250.273438 64.644531 232.863281 C 69.953125 215.453125 76.375 184.214844 76.746094 170.015625 C 77.117188 155.8125 70.449219 134.453125 64.769531 118.15625 C 59.089844 101.855469 60.042969 76.46875 46.617188 75.371094" fill="#000000"/></g><g id="change1_4"><path d="M 79.828125 77.175781 C 79.316406 76.902344 78.796875 77.539062 79.171875 77.988281 C 81.535156 80.8125 85.808594 86.335938 87.425781 91.054688 C 89.710938 97.71875 93.90625 106.425781 94.585938 117.90625 C 95.265625 129.390625 98.910156 142.355469 99.957031 147.109375 C 101.007812 151.863281 104.21875 167.175781 107.738281 182.730469 C 111.257812 198.289062 114.960938 208.476562 117.925781 223.480469 C 120.886719 238.480469 129.3125 257.558594 133.019531 258.207031 C 136.722656 258.855469 141.261719 252.742188 141.261719 249.222656 C 141.261719 245.703125 137.742188 235.148438 137 227.367188 C 136.261719 219.589844 131.722656 205.144531 131.722656 204.125 C 131.722656 203.105469 132.925781 203.753906 133.019531 201.53125 C 133.109375 199.308594 128.945312 184.953125 128.574219 177.824219 C 128.238281 171.382812 128.433594 155.804688 128.472656 152.847656 C 128.476562 152.5625 128.703125 152.332031 128.984375 152.324219 C 130.355469 152.300781 134.492188 152.585938 141.261719 156.152344 C 149.6875 160.601562 158.484375 163.285156 162.558594 162.914062 C 166.636719 162.542969 174.597656 156.894531 184.414062 153.46875 C 194.230469 150.042969 207.289062 142.449219 209.972656 141.335938 C 212.660156 140.226562 209.882812 130.59375 207.753906 122.632812 C 205.695312 114.949219 203.46875 112.179688 200.65625 110.496094 C 200.46875 110.382812 200.234375 110.398438 200.0625 110.53125 C 198.308594 111.878906 188.71875 119.175781 183.679688 121.433594 C 178.117188 123.929688 173.117188 126.984375 171.542969 129.667969 C 169.96875 132.355469 155.152344 131.984375 152.464844 129.574219 C 149.78125 127.167969 141.539062 120.964844 137.648438 117.628906 C 133.761719 114.296875 131.257812 108.367188 127.183594 102.996094 C 123.109375 97.628906 125.519531 92.71875 113.109375 89.292969 C 100.699219 85.867188 96.53125 87.71875 91.71875 84.570312 C 87.945312 82.101562 83.089844 78.914062 79.828125 77.175781" fill="#000000"/></g><g id="change4_2"><path d="M 9.203125 116.1875 C 9.203125 116.1875 7.113281 120.039062 8.222656 123.851562 C 9.328125 127.660156 13.03125 137.417969 15.503906 141.246094 C 17.972656 145.070312 15.132812 149.519531 19.082031 148.40625 C 23.035156 147.296875 25.007812 145.320312 25.007812 137.417969 C 25.007812 129.515625 25.75 129.761719 25.007812 124.699219 C 24.269531 119.636719 14.761719 114.09375 9.203125 116.1875" fill="#431644"/></g><g id="change2_3"><path d="M 24.332031 143.589844 C 24.332031 143.589844 17.722656 141.183594 14.019531 134.945312 C 10.316406 128.710938 9.265625 125.007812 9.265625 121.796875 C 9.265625 118.585938 8.710938 115.5 7.96875 114.882812 C 7.230469 114.265625 3.585938 105.253906 3.832031 99.820312 C 4.082031 94.386719 -0.179688 93.953125 0.0078125 90.433594 C 0.191406 86.914062 5.070312 89.878906 6.304688 91.421875 C 7.539062 92.964844 6.671875 94.757812 10.253906 96.980469 C 13.835938 99.199219 17.847656 101.300781 20.441406 105.5625 C 23.035156 109.820312 21.613281 113.464844 24.082031 115.808594 C 26.550781 118.15625 26.660156 123.78125 25.921875 124.832031 C 25.179688 125.878906 25.699219 127.292969 25.886719 132.582031 C 26.09375 138.410156 24.332031 143.589844 24.332031 143.589844" fill="#000000"/></g><g id="change1_5"><path d="M 76.917969 438.648438 C 76.917969 438.648438 73.296875 441.980469 72.992188 444.761719 C 72.6875 447.539062 71.917969 455.035156 72.058594 457.859375 C 72.199219 460.683594 72.054688 465.546875 72.054688 465.546875 C 72.054688 465.546875 81.53125 469.023438 84.445312 469.070312 C 87.363281 469.117188 86.808594 467.3125 86.808594 467.3125 C 86.808594 467.3125 91.625 467.589844 94.820312 470.320312 C 98.015625 473.050781 102.828125 477.867188 111.117188 478.285156 C 119.40625 478.699219 129.640625 479.164062 132.417969 477.355469 C 135.195312 475.550781 133.066406 470.828125 133.066406 470.828125 C 133.066406 470.828125 133.296875 468.28125 130.054688 465.96875 C 126.8125 463.652344 116.507812 458.597656 112.523438 455.125 C 108.542969 451.652344 106.832031 449.019531 104.703125 446.277344 C 103.5 444.722656 99.738281 443.460938 99.738281 443.460938 L 99.800781 444.441406 C 99.800781 444.441406 97.824219 444.910156 96.128906 445.269531 C 90.253906 446.511719 94.042969 449.285156 90.40625 450.203125 C 86.667969 451.144531 83.128906 450.644531 79.390625 447.992188 C 76.785156 446.140625 75.898438 443.675781 76.039062 442.886719 C 76.175781 442.101562 76.917969 438.648438 76.917969 438.648438" fill="#000000"/></g><g id="change2_4"><path d="M 83.070312 87.890625 C 85.527344 92.296875 82.378906 97.820312 77.339844 97.597656 C 76.792969 97.574219 76.21875 97.523438 75.601562 97.441406 C 65.785156 96.144531 59.167969 93.460938 59.167969 93.460938 C 59.167969 93.460938 56.976562 86.015625 54.519531 80.480469 C 53.269531 77.679688 49.597656 76.855469 49.222656 73.554688 C 48.113281 63.734375 45.734375 55.015625 45.734375 55.015625 C 45.734375 55.015625 41.476562 55.941406 39.902344 54.367188 C 38.328125 52.792969 34.898438 48.808594 35.175781 44.921875 C 35.457031 41.03125 36.292969 40.332031 36.292969 40.332031 C 32.335938 32.464844 34.492188 16.921875 41.789062 12.1875 C 49.085938 7.453125 66.800781 5.703125 76.882812 11.773438 C 86.96875 17.847656 85.691406 31.371094 85.691406 31.371094 C 85.238281 32.949219 84.835938 34.355469 84.90625 35.84375 C 85.09375 39.734375 85.464844 52.144531 84.722656 56.125 C 83.980469 60.105469 78.421875 63.8125 78.46875 67.332031 C 78.511719 70.359375 77.703125 78.273438 83.070312 87.890625" fill="#000000"/></g><g id="change4_3"><path d="M 86.480469 21.398438 C 85.183594 14.175781 80.183594 12.972656 77.683594 9.359375 C 75.183594 5.746094 73.886719 4.542969 71.480469 4.914062 C 69.070312 5.285156 67.128906 1.949219 61.015625 0.285156 C 55.484375 -1.222656 51.027344 3.628906 48.851562 6.417969 C 44.730469 7.222656 43.941406 7.882812 37.132812 11.226562 C 29.585938 14.929688 29.859375 29.609375 29.859375 29.609375 L 31.644531 24.945312 C 31.644531 24.945312 31.371094 27.828125 31.644531 31.804688 C 31.917969 35.785156 36.292969 40.332031 36.292969 40.332031 C 33.398438 29.929688 38.367188 24.398438 38.367188 24.398438 L 37.542969 28.238281 C 37.542969 28.238281 41.246094 23.847656 47.285156 21.652344 C 53.320312 19.457031 51.839844 21.253906 56.226562 20.15625 C 60.617188 19.058594 63.199219 15.617188 63.199219 15.617188 L 58.332031 22.339844 L 60.421875 21.65625 C 65.957031 19.855469 70.957031 16.691406 74.960938 12.460938 L 77.925781 15.464844 C 81.304688 18.886719 83.691406 23.160156 84.832031 27.832031 L 85.691406 31.371094 L 85.695312 31.371094 C 86.421875 28.832031 87.28125 25.855469 86.480469 21.398438" fill="#431644"/></g><g id="change4_4"><path d="M 51.878906 18.667969 C 51.878906 18.667969 52.394531 30.503906 49.101562 34 C 45.808594 37.5 45.667969 37.175781 45.667969 37.175781 L 46.734375 48.921875 L 41.65625 42.160156 C 40.414062 40.507812 38.289062 39.78125 36.292969 40.332031 C 36.292969 40.332031 33.769531 32.972656 34.386719 27.3125 C 35.003906 21.652344 46.632812 16.816406 46.632812 16.816406 L 51.878906 18.667969" fill="#431644"/></g><g id="change4_5"><path d="M 73.96875 31.761719 C 73.867188 31.761719 73.761719 31.71875 73.6875 31.636719 C 73.539062 31.484375 73.546875 31.238281 73.703125 31.09375 C 73.777344 31.023438 75.515625 29.402344 77.566406 29.023438 C 79.742188 28.625 81.542969 31.042969 81.617188 31.144531 C 81.746094 31.316406 81.707031 31.558594 81.535156 31.683594 C 81.367188 31.808594 81.125 31.773438 80.996094 31.601562 C 80.980469 31.582031 79.402344 29.472656 77.707031 29.785156 C 75.882812 30.117188 74.25 31.640625 74.230469 31.652344 C 74.15625 31.726562 74.0625 31.761719 73.96875 31.761719 Z M 54.554688 32.945312 L 54.355469 32.890625 C 54.171875 32.777344 54.113281 32.542969 54.226562 32.359375 C 54.316406 32.214844 56.425781 28.800781 59.578125 28.421875 C 62.761719 28.046875 64.890625 30.453125 64.980469 30.558594 C 65.121094 30.71875 65.105469 30.960938 64.945312 31.101562 C 64.785156 31.242188 64.539062 31.226562 64.398438 31.066406 C 64.378906 31.042969 62.425781 28.859375 59.667969 29.1875 C 56.886719 29.519531 54.90625 32.730469 54.886719 32.761719 C 54.8125 32.878906 54.683594 32.945312 54.554688 32.945312 Z M 72.621094 46.519531 C 71.007812 46.519531 69.539062 45.492188 69.449219 45.429688 C 69.277344 45.304688 69.234375 45.0625 69.359375 44.890625 C 69.480469 44.71875 69.722656 44.671875 69.898438 44.800781 C 69.925781 44.816406 72.558594 46.65625 74.257812 45.136719 C 75.511719 44.015625 72.921875 38.398438 70.996094 35.121094 C 70.886719 34.9375 70.949219 34.703125 71.132812 34.59375 C 71.316406 34.484375 71.550781 34.546875 71.660156 34.730469 C 72.546875 36.238281 76.859375 43.84375 74.773438 45.710938 C 74.101562 46.3125 73.347656 46.519531 72.621094 46.519531 Z M 214.046875 106.558594 C 213.929688 106.558594 213.8125 106.503906 213.738281 106.402344 C 213.609375 106.230469 213.648438 105.988281 213.816406 105.863281 C 216.542969 103.835938 215.8125 99.164062 215.804688 99.117188 C 215.769531 98.90625 215.914062 98.707031 216.125 98.671875 C 216.332031 98.640625 216.53125 98.78125 216.566406 98.992188 C 216.601562 99.199219 217.378906 104.171875 214.277344 106.480469 Z M 245.433594 97.375 L 245.433594 97.378906 Z M 245.433594 97.378906 L 245.433594 97.382812 Z M 245.433594 97.386719 Z M 228.039062 108.066406 C 227.847656 108.066406 227.683594 107.925781 227.65625 107.730469 L 226.316406 97.164062 C 226.289062 96.953125 226.4375 96.761719 226.648438 96.734375 C 226.84375 96.710938 227.054688 96.855469 227.082031 97.066406 L 227.25 98.394531 C 231.183594 97.085938 237.800781 94.898438 238.046875 94.867188 C 238.261719 94.84375 238.453125 94.992188 238.476562 95.203125 C 238.503906 95.40625 238.363281 95.59375 238.164062 95.628906 C 237.765625 95.726562 231.566406 97.773438 227.476562 99.128906 L 227.347656 99.148438 L 227.761719 102.425781 C 229.382812 101.6875 238.777344 97.453125 242.113281 96.941406 C 245.324219 96.445312 245.824219 96.816406 245.988281 96.941406 C 246.070312 97.003906 246.183594 97.164062 246.195312 97.269531 C 246.226562 97.480469 246.078125 97.675781 245.867188 97.703125 C 245.726562 97.722656 245.585938 97.660156 245.503906 97.550781 C 245.375 97.496094 244.714844 97.316406 242.230469 97.703125 C 238.785156 98.234375 228.140625 103.101562 227.863281 103.230469 L 228.171875 105.65625 C 229.203125 105.09375 232.433594 103.386719 234.613281 102.914062 C 237.398438 102.3125 238.390625 103.96875 238.429688 104.039062 C 238.535156 104.226562 238.472656 104.460938 238.289062 104.566406 C 238.109375 104.671875 237.871094 104.613281 237.761719 104.429688 C 237.726562 104.367188 236.972656 103.191406 234.777344 103.667969 C 232.464844 104.167969 228.734375 106.226562 228.277344 106.480469 L 228.425781 107.632812 C 228.449219 107.84375 228.300781 108.035156 228.089844 108.0625 Z M 19.339844 125.957031 C 18.867188 125.957031 18.542969 125.820312 18.351562 125.703125 C 18.160156 125.753906 17.964844 125.773438 17.773438 125.765625 C 16.441406 125.699219 15.648438 124.007812 15.390625 123.351562 C 14.976562 123.308594 14.507812 123.1875 13.976562 122.980469 C 11.429688 121.992188 5.65625 109.425781 5.003906 107.996094 C 4.917969 107.804688 5.003906 107.574219 5.195312 107.484375 C 5.394531 107.394531 5.621094 107.484375 5.707031 107.679688 C 8.210938 113.175781 12.550781 121.597656 14.253906 122.261719 C 14.808594 122.476562 15.269531 122.585938 15.640625 122.59375 L 15.691406 122.59375 C 15.953125 122.589844 16.167969 122.53125 16.332031 122.421875 C 16.691406 122.175781 16.875 121.597656 16.878906 120.703125 C 16.882812 119.910156 16.21875 118.710938 15.578125 117.550781 C 14.855469 116.246094 14.179688 115.019531 14.183594 114.023438 C 14.1875 112.339844 12.820312 109.0625 12.804688 109.03125 C 12.722656 108.835938 12.816406 108.609375 13.011719 108.527344 C 13.210938 108.441406 13.433594 108.535156 13.515625 108.730469 C 13.578125 108.871094 14.960938 112.1875 14.953125 114.027344 C 14.949219 114.820312 15.613281 116.019531 16.253906 117.179688 C 16.972656 118.480469 17.652344 119.710938 17.652344 120.703125 C 17.648438 121.886719 17.359375 122.65625 16.765625 123.058594 C 16.597656 123.171875 16.414062 123.253906 16.207031 123.304688 C 16.507812 123.988281 17.089844 124.957031 17.808594 124.992188 C 17.949219 125.003906 18.09375 124.980469 18.238281 124.929688 L 18.332031 124.894531 C 18.589844 124.789062 18.847656 124.597656 19.078125 124.335938 C 19.648438 123.691406 19.941406 122.761719 19.8125 122.015625 C 19.542969 120.484375 16.925781 112.410156 16.898438 112.328125 C 16.832031 112.125 16.945312 111.90625 17.144531 111.84375 C 17.355469 111.773438 17.566406 111.886719 17.632812 112.089844 C 17.738281 112.425781 20.296875 120.296875 20.570312 121.882812 C 20.742188 122.859375 20.382812 124.023438 19.65625 124.847656 C 19.546875 124.972656 19.433594 125.085938 19.3125 125.183594 C 19.515625 125.175781 19.832031 125.148438 20.207031 125.015625 L 20.40625 124.871094 L 20.515625 124.71875 C 21.105469 123.800781 21.652344 121.003906 21.863281 118.488281 C 21.882812 118.273438 22.042969 118.117188 22.28125 118.136719 C 22.496094 118.152344 22.652344 118.339844 22.636719 118.550781 C 22.546875 119.566406 22.285156 122.105469 21.695312 123.886719 C 22.273438 123.0625 22.933594 121.6875 23.394531 120.382812 C 23.46875 120.179688 23.6875 120.074219 23.886719 120.144531 C 24.089844 120.214844 24.195312 120.4375 24.121094 120.636719 C 23.730469 121.75 22.382812 125.246094 20.933594 125.402344 C 20.789062 125.566406 20.632812 125.6875 20.460938 125.746094 C 20.019531 125.898438 19.648438 125.957031 19.339844 125.957031 Z M 161.296875 140.03125 C 161.195312 140.03125 161.097656 139.996094 161.023438 139.917969 C 160.871094 139.765625 160.875 139.523438 161.023438 139.371094 L 168.972656 131.53125 C 167.734375 131.832031 165.964844 132.277344 165.0625 132.558594 C 163.648438 132.996094 160.472656 135.257812 160.441406 135.277344 C 160.269531 135.402344 160.023438 135.363281 159.902344 135.1875 C 159.777344 135.015625 159.816406 134.773438 159.992188 134.652344 C 160.128906 134.554688 163.300781 132.296875 164.835938 131.820312 C 166.199219 131.394531 169.398438 130.632812 170.035156 130.480469 L 171.519531 129.015625 C 171.671875 128.867188 171.917969 128.867188 172.066406 129.019531 C 172.214844 129.171875 172.214844 129.414062 172.0625 129.566406 L 170.515625 131.09375 L 170.488281 131.121094 L 161.566406 139.921875 C 161.492188 139.996094 161.394531 140.03125 161.296875 140.03125 Z M 128.441406 155.816406 C 128.230469 155.8125 128.058594 155.640625 128.058594 155.429688 C 128.089844 139.710938 127.101562 108.011719 127.09375 107.691406 C 127.085938 107.480469 127.253906 107.304688 127.46875 107.296875 C 127.667969 107.277344 127.855469 107.457031 127.863281 107.667969 C 127.875 107.988281 128.863281 139.699219 128.828125 155.429688 C 128.828125 155.644531 128.65625 155.816406 128.441406 155.816406 Z M 103.46875 158.96875 L 103.449219 158.964844 C 103.238281 158.957031 103.074219 158.773438 103.082031 158.5625 L 105.953125 97.769531 L 92.558594 89.105469 C 92.453125 89.035156 92.386719 88.917969 92.382812 88.789062 C 92.382812 88.660156 92.441406 88.539062 92.546875 88.464844 L 96.042969 86.042969 C 96.21875 85.921875 96.460938 85.964844 96.582031 86.140625 C 96.703125 86.316406 96.660156 86.554688 96.484375 86.675781 L 93.460938 88.769531 L 106.558594 97.242188 C 106.675781 97.316406 106.742188 97.445312 106.734375 97.582031 L 103.855469 158.597656 C 103.84375 158.804688 103.675781 158.96875 103.46875 158.96875 Z M 31.429688 160.335938 L 31.246094 160.289062 C 31.058594 160.1875 30.988281 159.953125 31.089844 159.765625 C 31.15625 159.644531 37.664062 147.5 35.308594 134.273438 C 32.945312 120.984375 25.09375 108.609375 25.015625 108.484375 C 24.898438 108.304688 24.953125 108.066406 25.132812 107.953125 C 25.308594 107.839844 25.546875 107.890625 25.664062 108.066406 C 25.742188 108.191406 33.675781 120.699219 36.070312 134.140625 C 38.472656 147.636719 31.835938 160.011719 31.769531 160.136719 C 31.699219 160.265625 31.566406 160.335938 31.429688 160.335938 Z M 76.082031 160.335938 C 75.949219 160.335938 75.820312 160.269531 75.75 160.144531 C 75.644531 159.964844 65.375 142.066406 59.476562 134.347656 C 53.726562 126.820312 47.714844 115.894531 44.125 109.363281 C 43.457031 108.148438 42.882812 107.105469 42.425781 106.292969 C 39.585938 101.257812 35.117188 93.171875 35.074219 93.089844 C 34.972656 92.90625 35.039062 92.675781 35.21875 92.570312 L 39.835938 89.910156 C 37.296875 89.269531 33.042969 87.949219 32.839844 87.882812 C 32.632812 87.820312 32.519531 87.605469 32.582031 87.398438 C 32.648438 87.195312 32.863281 87.085938 33.066406 87.148438 C 33.125 87.164062 38.777344 88.925781 40.953125 89.378906 C 41.109375 89.410156 41.230469 89.535156 41.257812 89.695312 C 41.28125 89.851562 41.207031 90.011719 41.070312 90.089844 L 35.933594 93.050781 C 36.804688 94.625 40.585938 101.460938 43.097656 105.914062 C 43.558594 106.730469 44.132812 107.773438 44.800781 108.992188 C 48.382812 115.503906 54.375 126.398438 60.089844 133.878906 C 66.019531 141.640625 76.316406 159.578125 76.417969 159.757812 C 76.523438 159.945312 76.460938 160.179688 76.273438 160.285156 Z M 44.171875 205.511719 C 39 205.511719 28.074219 204.5625 21.761719 202.859375 C 21.554688 202.804688 21.433594 202.59375 21.488281 202.386719 C 21.542969 202.183594 21.753906 202.058594 21.960938 202.113281 C 30.390625 204.386719 45.101562 204.953125 46.484375 204.644531 C 46.984375 203.453125 48.207031 192.191406 47.011719 190.890625 L 46.890625 190.867188 C 44.507812 191.871094 29.449219 189.214844 27.738281 188.90625 C 27.53125 188.871094 27.390625 188.667969 27.425781 188.460938 C 27.464844 188.25 27.660156 188.113281 27.875 188.148438 C 32.457031 188.96875 44.753906 190.929688 46.589844 190.15625 C 47.019531 189.976562 47.421875 190.109375 47.699219 190.519531 C 49.015625 192.476562 47.71875 204.523438 47.015625 205.230469 C 46.824219 205.417969 45.777344 205.511719 44.171875 205.511719 Z M 79.046875 315.503906 L 78.953125 315.492188 C 78.746094 315.441406 78.621094 315.234375 78.671875 315.027344 L 87.59375 278.261719 C 87.640625 278.054688 87.847656 277.925781 88.058594 277.976562 C 88.265625 278.027344 88.390625 278.234375 88.339844 278.441406 L 79.421875 315.210938 C 79.378906 315.386719 79.21875 315.503906 79.046875 315.503906 Z M 109.277344 372.789062 L 109.058594 372.722656 C 108.882812 372.601562 108.839844 372.363281 108.957031 372.1875 L 113.839844 365.011719 C 113.960938 364.835938 114.199219 364.792969 114.375 364.910156 C 114.550781 365.03125 114.597656 365.269531 114.476562 365.445312 L 109.597656 372.621094 C 109.519531 372.730469 109.398438 372.789062 109.277344 372.789062 Z M 49.53125 379.667969 C 49.386719 379.667969 49.25 379.585938 49.183594 379.449219 C 49.089844 379.257812 49.171875 379.027344 49.363281 378.933594 C 55.054688 376.191406 59.953125 371.988281 63.53125 366.777344 C 63.652344 366.601562 63.890625 366.558594 64.066406 366.679688 C 64.242188 366.800781 64.289062 367.039062 64.167969 367.214844 C 60.511719 372.535156 55.511719 376.828125 49.699219 379.628906 Z M 91.871094 441.105469 C 87.84375 441.105469 83.425781 439.476562 79.523438 438.035156 C 78.667969 437.722656 77.839844 437.414062 77.039062 437.136719 C 76.835938 437.0625 76.730469 436.84375 76.800781 436.644531 C 76.871094 436.441406 77.089844 436.335938 77.292969 436.40625 C 78.097656 436.6875 78.933594 436.996094 79.789062 437.3125 C 83.6875 438.75 88.125 440.367188 92.042969 440.335938 C 96.359375 440.28125 100.558594 438.59375 104.890625 435.179688 C 105.058594 435.046875 105.300781 435.074219 105.429688 435.242188 C 105.5625 435.410156 105.535156 435.652344 105.367188 435.785156 C 100.898438 439.308594 96.542969 441.050781 92.054688 441.105469 Z M 94.105469 453.558594 L 93.964844 453.53125 L 86.5625 450.664062 C 86.363281 450.585938 86.265625 450.363281 86.34375 450.164062 C 86.421875 449.964844 86.644531 449.867188 86.84375 449.945312 L 91.769531 451.851562 L 89.34375 449.976562 C 89.171875 449.847656 89.140625 449.605469 89.273438 449.4375 C 89.402344 449.269531 89.644531 449.234375 89.816406 449.367188 L 94.34375 452.867188 C 94.492188 452.984375 94.535156 453.195312 94.441406 453.363281 C 94.371094 453.484375 94.242188 453.558594 94.105469 453.558594 Z M 59.785156 457.636719 C 45.179688 457.636719 33.625 451.203125 33.503906 451.132812 C 33.316406 451.027344 33.253906 450.792969 33.355469 450.609375 C 33.460938 450.421875 33.699219 450.359375 33.882812 450.464844 C 34.007812 450.53125 46.457031 457.457031 61.773438 456.824219 C 62.019531 456.804688 62.164062 456.980469 62.171875 457.195312 C 62.179688 457.40625 62.015625 457.585938 61.804688 457.597656 C 61.125 457.625 60.449219 457.636719 59.785156 457.636719 Z M 44.339844 475.402344 L 44.332031 475.402344 C 44.136719 475.402344 43.972656 475.25 43.953125 475.054688 L 43.125 465.921875 C 43.105469 465.710938 43.261719 465.523438 43.472656 465.503906 C 43.703125 465.484375 43.871094 465.644531 43.890625 465.855469 L 44.382812 471.257812 L 44.640625 469.023438 C 44.664062 468.8125 44.84375 468.667969 45.070312 468.6875 C 45.28125 468.710938 45.433594 468.902344 45.40625 469.113281 L 44.722656 475.0625 C 44.699219 475.257812 44.535156 475.402344 44.339844 475.402344 Z M 123.890625 475.988281 C 119.996094 475.988281 115.566406 475.464844 110.816406 474.898438 L 108.671875 474.644531 C 101.355469 473.792969 97.980469 470.480469 95.75 468.285156 C 94.71875 467.277344 93.910156 466.480469 93.082031 466.261719 C 91.570312 465.863281 90.742188 465.96875 89.59375 466.117188 C 88.65625 466.238281 87.492188 466.386719 85.644531 466.273438 C 81.613281 466.027344 72.332031 462.222656 71.941406 462.058594 C 71.742188 461.976562 71.648438 461.753906 71.730469 461.554688 C 71.808594 461.359375 72.035156 461.265625 72.230469 461.347656 C 72.328125 461.386719 81.789062 465.265625 85.691406 465.503906 C 87.464844 465.609375 88.542969 465.472656 89.496094 465.351562 C 90.679688 465.199219 91.621094 465.078125 93.277344 465.515625 C 94.304688 465.785156 95.179688 466.644531 96.289062 467.734375 C 98.574219 469.980469 101.707031 473.058594 108.761719 473.878906 L 110.910156 474.132812 C 120.320312 475.25 128.449219 476.214844 133.46875 473.210938 C 133.652344 473.101562 133.890625 473.160156 134 473.34375 C 134.105469 473.527344 134.046875 473.765625 133.863281 473.875 C 131.230469 475.449219 127.832031 475.988281 123.890625 475.988281 Z M 60.148438 497.449219 C 54.25 497.449219 47.246094 494.949219 43.519531 491.3125 C 40.574219 488.4375 39.847656 483.9375 39.699219 481.175781 L 36.652344 476.746094 C 36.53125 476.570312 36.578125 476.332031 36.753906 476.210938 C 36.929688 476.089844 37.167969 476.132812 37.289062 476.3125 L 39.664062 479.765625 C 39.667969 479.191406 39.695312 478.828125 39.703125 478.761719 C 39.71875 478.550781 39.902344 478.394531 40.113281 478.40625 C 40.328125 478.421875 40.488281 478.609375 40.46875 478.820312 C 40.464844 478.898438 39.917969 486.71875 44.058594 490.757812 C 48.117188 494.71875 56.589844 497.355469 62.566406 496.519531 C 68.246094 495.722656 72.699219 492.011719 72.742188 491.976562 C 72.90625 491.839844 73.148438 491.859375 73.285156 492.019531 C 73.425781 492.183594 73.40625 492.429688 73.242188 492.566406 C 73.054688 492.722656 68.582031 496.453125 62.671875 497.28125 C 61.863281 497.394531 61.019531 497.449219 60.148438 497.449219" fill="#431644"/></g><g id="change5_2"><path d="M 72.421875 59.792969 C 70.980469 59.792969 69.511719 59.136719 68.648438 58.570312 C 68.46875 58.453125 68.421875 58.21875 68.539062 58.039062 C 68.65625 57.859375 68.894531 57.8125 69.074219 57.929688 C 69.109375 57.949219 72.804688 60.324219 74.65625 58.007812 C 74.792969 57.84375 75.035156 57.816406 75.203125 57.949219 C 75.367188 58.082031 75.394531 58.324219 75.261719 58.492188 C 74.492188 59.449219 73.464844 59.792969 72.421875 59.792969" fill="#000000"/></g><g id="change4_6"><path d="M 48.65625 56.125 C 48.65625 56.125 52.15625 66 56.886719 69.535156 C 64.691406 75.363281 77.96875 73.269531 77.96875 73.269531 L 79.679688 77.515625 C 78.738281 72.78125 78.492188 68.871094 78.46875 67.332031 C 78.421875 63.8125 83.980469 60.105469 84.722656 56.125 C 84.722656 56.125 80.65625 63.953125 71.910156 65.28125 C 61.757812 66.820312 48.65625 56.125 48.65625 56.125" fill="#431644"/></g><g id="change4_7"><path d="M 78.15625 34.925781 C 78.15625 35.835938 77.417969 36.574219 76.507812 36.574219 C 75.59375 36.574219 74.855469 35.835938 74.855469 34.925781 C 74.855469 34.019531 75.59375 33.28125 76.507812 33.28125 C 77.417969 33.28125 78.15625 34.019531 78.15625 34.925781" fill="#431644"/></g><g id="change4_8"><path d="M 62.195312 34.515625 C 62.195312 35.425781 61.457031 36.160156 60.542969 36.160156 C 59.632812 36.160156 58.894531 35.425781 58.894531 34.515625 C 58.894531 33.605469 59.632812 32.867188 60.542969 32.867188 C 61.457031 32.867188 62.195312 33.605469 62.195312 34.515625" fill="#431644"/></g><g id="change4_9"><path d="M 64.210938 48.34375 L 77.242188 49.910156 C 77.886719 49.988281 78.09375 50.820312 77.554688 51.183594 C 76.101562 52.160156 73.742188 53.460938 71.433594 53.460938 C 69.027344 53.460938 65.714844 51.179688 63.691406 49.582031 C 63.140625 49.144531 63.511719 48.257812 64.210938 48.34375" fill="#431644"/></g><g id="change2_5"><path d="M 76.183594 50.21875 C 76.382812 50.238281 76.515625 50.441406 76.441406 50.628906 C 76.304688 50.953125 75.949219 51.410156 74.992188 51.652344 C 73.570312 52.011719 67.417969 50.738281 65.945312 50.429688 C 65.789062 50.394531 65.375 50.089844 65.1875 49.8125 L 64.902344 49.277344 C 64.921875 49.113281 65.070312 48.992188 65.238281 49.011719 L 76.183594 50.21875" fill="#000000"/></g></g></svg>